<?xml version="1.0" encoding="UTF-8" standalone="no"?><svg xmlns="http://www.w3.org/2000/svg" xmlns:xlink="http://www.w3.org/1999/xlink" contentScriptType="application/ecmascript" contentStyleType="text/css" height="523px" preserveAspectRatio="none" style="width:496px;height:523px;background:#FFFFFF;" version="1.1" viewBox="0 0 496 523" width="496px" zoomAndPan="magnify"><defs><filter height="300%" id="f13vuiemaehaic" width="300%" x="-1" y="-1"><feGaussianBlur result="blurOut" stdDeviation="2.0"/><feColorMatrix in="blurOut" result="blurOut2" type="matrix" values="0 0 0 0 0 0 0 0 0 0 0 0 0 0 0 0 0 0 .4 0"/><feOffset dx="4.0" dy="4.0" in="blurOut2" result="blurOut3"/><feBlend in="SourceGraphic" in2="blurOut3" mode="normal"/></filter></defs><g><!--MD5=[975d7fda8cf98ff1a26ca528bf10cecf]
cluster App--><rect fill="#FFFFFF" filter="url(#f13vuiemaehaic)" height="504" style="stroke:#000000;stroke-width:1.5;" width="214" x="270" y="7"/><text fill="#000000" font-family="sans-serif" font-size="14" font-weight="bold" lengthAdjust="spacing" textLength="31" x="361.5" y="21.9951">App</text><!--MD5=[eba421ac8e20ac42f3ee759fe6c4cf96]
cluster Device--><rect fill="#FFFFFF" filter="url(#f13vuiemaehaic)" height="209" style="stroke:#000000;stroke-width:1.5;" width="127" x="7" y="223"/><text fill="#000000" font-family="sans-serif" font-size="14" font-weight="bold" lengthAdjust="spacing" textLength="53" x="44" y="237.9951">Device</text><ellipse cx="377.1638" cy="203.0812" fill="#FEFECE" filter="url(#f13vuiemaehaic)" rx="40.6638" ry="14.5812" style="stroke:#A80036;stroke-width:1.5;"/><text fill="#000000" font-family="sans-serif" font-size="14" lengthAdjust="spacing" textLength="41" x="354.0122" y="206.7432">Log In</text><ellipse cx="376.7915" cy="337.1583" fill="#FEFECE" filter="url(#f13vuiemaehaic)" rx="88.7915" ry="20.1583" style="stroke:#A80036;stroke-width:1.5;"/><text fill="#000000" font-family="sans-serif" font-size="14" lengthAdjust="spacing" textLength="139" x="307.2915" y="340.005">Acquire Device Data</text><ellipse cx="376.9652" cy="410.193" fill="#FEFECE" filter="url(#f13vuiemaehaic)" rx="78.9652" ry="18.193" style="stroke:#A80036;stroke-width:1.5;"/><text fill="#000000" font-family="sans-serif" font-size="14" lengthAdjust="spacing" textLength="116" x="316.9" y="413.6886">See Own Graphs</text><ellipse cx="376.9996" cy="133.0999" fill="#FEFECE" filter="url(#f13vuiemaehaic)" rx="90.9996" ry="20.5999" style="stroke:#A80036;stroke-width:1.5;"/><text fill="#000000" font-family="sans-serif" font-size="14" lengthAdjust="spacing" textLength="144" x="304.9996" y="135.9466">See Patients' Graphs</text><ellipse cx="376.8402" cy="267.2338" fill="#FEFECE" filter="url(#f13vuiemaehaic)" rx="54.8402" ry="14.7338" style="stroke:#A80036;stroke-width:1.5;"/><text fill="#000000" font-family="sans-serif" font-size="14" lengthAdjust="spacing" textLength="60" x="343.8402" y="270.9814">Add HCP</text><ellipse cx="376.964" cy="479.1928" fill="#FEFECE" filter="url(#f13vuiemaehaic)" rx="68.964" ry="16.1928" style="stroke:#A80036;stroke-width:1.5;"/><text fill="#000000" font-family="sans-serif" font-size="14" lengthAdjust="spacing" textLength="90" x="328.964" y="482.9404">Remove HCP</text><ellipse cx="377.1676" cy="60.1335" fill="#FEFECE" filter="url(#f13vuiemaehaic)" rx="76.1676" ry="17.6335" style="stroke:#A80036;stroke-width:1.5;"/><text fill="#000000" font-family="sans-serif" font-size="14" lengthAdjust="spacing" textLength="109" x="319.6676" y="63.8811">Remove Patient</text><ellipse cx="70.3761" cy="273.1644" fill="#FEFECE" filter="url(#f13vuiemaehaic)" rx="47.3761" ry="14.6644" style="stroke:#A80036;stroke-width:1.5;"/><text fill="#000000" font-family="sans-serif" font-size="14" lengthAdjust="spacing" textLength="50" x="42.3761" y="276.9119">Charge</text><ellipse cx="70.2722" cy="337.0369" fill="#FEFECE" filter="url(#f13vuiemaehaic)" rx="36.2722" ry="14.5369" style="stroke:#A80036;stroke-width:1.5;"/><text fill="#000000" font-family="sans-serif" font-size="14" lengthAdjust="spacing" textLength="35" x="51.6457" y="340.2741">Wear</text><ellipse cx="70.3338" cy="401.0287" fill="#FEFECE" filter="url(#f13vuiemaehaic)" rx="34.8338" ry="14.5287" style="stroke:#A80036;stroke-width:1.5;"/><text fill="#000000" font-family="sans-serif" font-size="14" lengthAdjust="spacing" textLength="33" x="53.1671" y="404.1168">Sync</text><!--MD5=[320cb30c242bc5a52e1169868a9af79a]
entity patient--><ellipse cx="202" cy="306" fill="#FEFECE" filter="url(#f13vuiemaehaic)" rx="8" ry="8" style="stroke:#A80036;stroke-width:1.5;"/><path d="M202,314 L202,341 M189,322 L215,322 M202,341 L189,356 M202,341 L215,356 " fill="none" filter="url(#f13vuiemaehaic)" style="stroke:#A80036;stroke-width:1.5;"/><text fill="#000000" font-family="sans-serif" font-size="14" lengthAdjust="spacing" textLength="48" x="178" y="374.4951">Patient</text><!--MD5=[90887720670afa18fbc94c7e2d19493d]
entity hcp--><ellipse cx="202" cy="102" fill="#FEFECE" filter="url(#f13vuiemaehaic)" rx="8" ry="8" style="stroke:#A80036;stroke-width:1.5;"/><path d="M202,110 L202,137 M189,118 L215,118 M202,137 L189,152 M202,137 L215,152 " fill="none" filter="url(#f13vuiemaehaic)" style="stroke:#A80036;stroke-width:1.5;"/><text fill="#000000" font-family="sans-serif" font-size="14" lengthAdjust="spacing" textLength="29" x="187.5" y="170.4951">HCP</text><!--MD5=[cd83ffc42e22c059997d1ca483150265]
link patient to LogIn--><path d="M217.78,296.27 C227.38,275.17 241.88,250.62 262,235 C282.16,219.36 309.56,211.36 332.45,207.27 " fill="none" id="patient-to-LogIn" style="stroke:#A80036;stroke-width:1.0;"/><polygon fill="#A80036" points="337.56,206.41,328.0214,203.9575,332.6292,207.2389,329.3477,211.8467,337.56,206.41" style="stroke:#A80036;stroke-width:1.0;"/><!--MD5=[cb2975754aba9a0e88507629e4798e7e]
link patient to AcquireDeviceData--><path d="M226.33,337 C241.27,337 261.75,337 282.75,337 " fill="none" id="patient-to-AcquireDeviceData" style="stroke:#A80036;stroke-width:1.0;"/><polygon fill="#A80036" points="287.81,337,278.81,333,282.81,337,278.81,341,287.81,337" style="stroke:#A80036;stroke-width:1.0;"/><!--MD5=[21985e5d87e5ececbc3670fff4348cb2]
link patient to SeeOwnGraphs--><path d="M226.26,354.09 C236.79,361.26 249.63,369.25 262,375 C279.5,383.14 299.38,389.99 317.58,395.41 " fill="none" id="patient-to-SeeOwnGraphs" style="stroke:#A80036;stroke-width:1.0;"/><polygon fill="#A80036" points="322.66,396.9,315.1626,390.5133,317.865,395.483,312.8954,398.1853,322.66,396.9" style="stroke:#A80036;stroke-width:1.0;"/><!--MD5=[c1433a7fe0b87f300f24ba6107a15714]
link patient to AddDoctor--><path d="M226.19,319.77 C236.71,312.57 249.56,304.6 262,299 C283,289.55 307.45,282.24 328.31,277.01 " fill="none" id="patient-to-AddDoctor" style="stroke:#A80036;stroke-width:1.0;"/><polygon fill="#A80036" points="333.25,275.79,323.5533,274.0654,328.3959,276.9892,325.4721,281.8319,333.25,275.79" style="stroke:#A80036;stroke-width:1.0;"/><!--MD5=[5718561cda968e569018728446b81a94]
link patient to RemoveDoctor--><path d="M216.09,377.74 C225.46,400.83 240.3,428.52 262,446 C276.23,457.46 294.27,464.94 311.79,469.83 " fill="none" id="patient-to-RemoveDoctor" style="stroke:#A80036;stroke-width:1.0;"/><polygon fill="#A80036" points="316.71,471.13,309.0423,464.9489,311.8784,469.8435,306.9838,472.6796,316.71,471.13" style="stroke:#A80036;stroke-width:1.0;"/><!--MD5=[bd6288cba42c072de656d3263cc24ef3]
link hcp to LogIn--><path d="M216.86,143.63 C228.41,152.05 245.56,163.6 262,171 C285.7,181.67 313.8,189.6 336.17,194.9 " fill="none" id="hcp-to-LogIn" style="stroke:#A80036;stroke-width:1.0;"/><polygon fill="#A80036" points="341.14,196.06,333.275,190.132,336.269,194.9315,331.4694,197.9255,341.14,196.06" style="stroke:#A80036;stroke-width:1.0;"/><!--MD5=[f7df60a23428e2ae04f5960bcc71324c]
link hcp to SeePatientsGraphs--><path d="M216.58,133 C231.06,133 255.37,133 280.7,133 " fill="none" id="hcp-to-SeePatientsGraphs" style="stroke:#A80036;stroke-width:1.0;"/><polygon fill="#A80036" points="285.78,133,276.78,129,280.78,133,276.78,137,285.78,133" style="stroke:#A80036;stroke-width:1.0;"/><!--MD5=[3854b8f4112fe6593fac2161e251df55]
link hcp to RemovePatient--><path d="M216.91,122.47 C228.48,114.11 245.65,102.6 262,95 C279.93,86.67 300.36,79.68 318.91,74.19 " fill="none" id="hcp-to-RemovePatient" style="stroke:#A80036;stroke-width:1.0;"/><polygon fill="#A80036" points="324.09,72.69,314.33,71.37,319.29,74.09,316.57,79.05,324.09,72.69" style="stroke:#A80036;stroke-width:1.0;"/><!--MD5=[3329d7afaf08670bfd197eb6f390ae11]
reverse link ChargeDevice to patient--><path d="M103.56,286.98 C115.69,292.41 129.57,298.82 142,305 C154,310.97 167.12,318.03 177.94,324 " fill="none" id="ChargeDevice-backto-patient" style="stroke:#A80036;stroke-width:1.0;"/><polygon fill="#A80036" points="98.83,284.86,105.4149,292.1839,103.3949,286.9,108.6788,284.88,98.83,284.86" style="stroke:#A80036;stroke-width:1.0;"/><!--MD5=[4c775ab89d1dcfce9b9db0a1863bddc4]
reverse link WearDevice to patient--><path d="M112.32,337 C133.85,337 159.48,337 177.64,337 " fill="none" id="WearDevice-backto-patient" style="stroke:#A80036;stroke-width:1.0;"/><polygon fill="#A80036" points="107.23,337,116.23,341,112.23,337,116.23,333,107.23,337" style="stroke:#A80036;stroke-width:1.0;"/><!--MD5=[71e291d2b57d06defa212840e88ab4c4]
reverse link SyncDevice to patient--><path d="M100.15,388.55 C113.04,382.8 128.39,375.77 142,369 C154,363.03 167.12,355.97 177.94,350 " fill="none" id="SyncDevice-backto-patient" style="stroke:#A80036;stroke-width:1.0;"/><polygon fill="#A80036" points="95.52,390.6,105.3689,390.5943,100.0879,388.5667,102.1155,383.2857,95.52,390.6" style="stroke:#A80036;stroke-width:1.0;"/><!--MD5=[ffc5349e894ad896a87748f4fd3e9f7d]
@startuml RVMS
left to right direction
actor Patient as patient
actor HCP as hcp

rectangle App {
    usecase "Log In" as LogIn
    usecase "Acquire Device Data" as AcquireDeviceData
    usecase "See Own Graphs" as SeeOwnGraphs
    usecase "See Patients' Graphs" as SeePatientsGraphs
    usecase "Add HCP" as AddDoctor
    usecase "Remove HCP" as RemoveDoctor
    usecase "Remove Patient" as RemovePatient
}

rectangle Device {
    usecase "Charge" as ChargeDevice
    usecase "Wear" as WearDevice
    usecase "Sync" as SyncDevice
}

patient - -> LogIn
patient - -> AcquireDeviceData
patient - -> SeeOwnGraphs
patient - -> AddDoctor
patient - -> RemoveDoctor

hcp - -> LogIn
hcp - -> SeePatientsGraphs
hcp - -> RemovePatient

ChargeDevice <- - patient
WearDevice <- - patient
SyncDevice <- - patient

@enduml

PlantUML version 1.2022.0(Tue Jan 11 09:16:42 MST 2022)
(GPL source distribution)
Java Runtime: OpenJDK Runtime Environment
JVM: OpenJDK 64-Bit Server VM
Default Encoding: UTF-8
Language: en
Country: US
--></g></svg>